<mxfile host="app.diagrams.net" agent="Mozilla/5.0 (Windows NT 10.0; Win64; x64) AppleWebKit/537.36 (KHTML, like Gecko) Chrome/131.0.0.0 Safari/537.36" version="26.0.5">
  <diagram name="第 1 页" id="-Kdvy_L9UkKGEoizAO2K">
    <mxGraphModel dx="989" dy="514" grid="1" gridSize="10" guides="1" tooltips="1" connect="1" arrows="1" fold="1" page="1" pageScale="1" pageWidth="1100" pageHeight="850" math="0" shadow="0">
      <root>
        <mxCell id="0" />
        <mxCell id="1" parent="0" />
        <mxCell id="CGeWBXCP5YsrH_zelqQp-5" style="edgeStyle=orthogonalEdgeStyle;rounded=0;orthogonalLoop=1;jettySize=auto;html=1;exitX=0.5;exitY=1;exitDx=0;exitDy=0;" edge="1" parent="1" source="CGeWBXCP5YsrH_zelqQp-1" target="CGeWBXCP5YsrH_zelqQp-4">
          <mxGeometry relative="1" as="geometry" />
        </mxCell>
        <mxCell id="CGeWBXCP5YsrH_zelqQp-8" style="edgeStyle=orthogonalEdgeStyle;rounded=0;orthogonalLoop=1;jettySize=auto;html=1;exitX=1;exitY=0.5;exitDx=0;exitDy=0;" edge="1" parent="1" source="CGeWBXCP5YsrH_zelqQp-1" target="CGeWBXCP5YsrH_zelqQp-7">
          <mxGeometry relative="1" as="geometry" />
        </mxCell>
        <mxCell id="CGeWBXCP5YsrH_zelqQp-69" value="是" style="edgeLabel;html=1;align=center;verticalAlign=middle;resizable=0;points=[];" vertex="1" connectable="0" parent="CGeWBXCP5YsrH_zelqQp-8">
          <mxGeometry x="-0.2802" y="-2" relative="1" as="geometry">
            <mxPoint as="offset" />
          </mxGeometry>
        </mxCell>
        <mxCell id="CGeWBXCP5YsrH_zelqQp-1" value="自动审核配置开关？" style="rhombus;whiteSpace=wrap;html=1;" vertex="1" parent="1">
          <mxGeometry x="450" y="110" width="80" height="80" as="geometry" />
        </mxCell>
        <mxCell id="CGeWBXCP5YsrH_zelqQp-3" style="edgeStyle=orthogonalEdgeStyle;rounded=0;orthogonalLoop=1;jettySize=auto;html=1;entryX=0;entryY=0.5;entryDx=0;entryDy=0;" edge="1" parent="1" source="CGeWBXCP5YsrH_zelqQp-2" target="CGeWBXCP5YsrH_zelqQp-1">
          <mxGeometry relative="1" as="geometry" />
        </mxCell>
        <mxCell id="CGeWBXCP5YsrH_zelqQp-2" value="采购订单提交" style="rounded=1;whiteSpace=wrap;html=1;" vertex="1" parent="1">
          <mxGeometry x="240" y="120" width="120" height="60" as="geometry" />
        </mxCell>
        <mxCell id="CGeWBXCP5YsrH_zelqQp-9" style="edgeStyle=orthogonalEdgeStyle;rounded=0;orthogonalLoop=1;jettySize=auto;html=1;" edge="1" parent="1" source="CGeWBXCP5YsrH_zelqQp-4" target="CGeWBXCP5YsrH_zelqQp-7">
          <mxGeometry relative="1" as="geometry" />
        </mxCell>
        <mxCell id="CGeWBXCP5YsrH_zelqQp-12" style="edgeStyle=orthogonalEdgeStyle;rounded=0;orthogonalLoop=1;jettySize=auto;html=1;" edge="1" parent="1" source="CGeWBXCP5YsrH_zelqQp-4" target="CGeWBXCP5YsrH_zelqQp-11">
          <mxGeometry relative="1" as="geometry" />
        </mxCell>
        <mxCell id="CGeWBXCP5YsrH_zelqQp-68" value="是" style="edgeLabel;html=1;align=center;verticalAlign=middle;resizable=0;points=[];" vertex="1" connectable="0" parent="CGeWBXCP5YsrH_zelqQp-12">
          <mxGeometry x="-0.2123" y="2" relative="1" as="geometry">
            <mxPoint as="offset" />
          </mxGeometry>
        </mxCell>
        <mxCell id="CGeWBXCP5YsrH_zelqQp-4" value="是否正价？" style="rhombus;whiteSpace=wrap;html=1;" vertex="1" parent="1">
          <mxGeometry x="450" y="240" width="80" height="80" as="geometry" />
        </mxCell>
        <mxCell id="CGeWBXCP5YsrH_zelqQp-19" style="edgeStyle=orthogonalEdgeStyle;rounded=0;orthogonalLoop=1;jettySize=auto;html=1;" edge="1" parent="1" source="CGeWBXCP5YsrH_zelqQp-7" target="CGeWBXCP5YsrH_zelqQp-13">
          <mxGeometry relative="1" as="geometry">
            <Array as="points">
              <mxPoint x="680" y="480" />
              <mxPoint x="490" y="480" />
            </Array>
          </mxGeometry>
        </mxCell>
        <mxCell id="CGeWBXCP5YsrH_zelqQp-7" value="原有逻辑" style="rounded=1;whiteSpace=wrap;html=1;" vertex="1" parent="1">
          <mxGeometry x="620" y="250" width="120" height="60" as="geometry" />
        </mxCell>
        <mxCell id="CGeWBXCP5YsrH_zelqQp-16" style="edgeStyle=orthogonalEdgeStyle;rounded=0;orthogonalLoop=1;jettySize=auto;html=1;entryX=0.5;entryY=0;entryDx=0;entryDy=0;" edge="1" parent="1" source="CGeWBXCP5YsrH_zelqQp-11" target="CGeWBXCP5YsrH_zelqQp-13">
          <mxGeometry relative="1" as="geometry" />
        </mxCell>
        <mxCell id="CGeWBXCP5YsrH_zelqQp-11" value="触发初审&amp;amp;审核" style="rounded=1;whiteSpace=wrap;html=1;" vertex="1" parent="1">
          <mxGeometry x="430" y="365" width="120" height="60" as="geometry" />
        </mxCell>
        <mxCell id="CGeWBXCP5YsrH_zelqQp-20" style="edgeStyle=orthogonalEdgeStyle;rounded=0;orthogonalLoop=1;jettySize=auto;html=1;" edge="1" parent="1" source="CGeWBXCP5YsrH_zelqQp-13" target="CGeWBXCP5YsrH_zelqQp-14">
          <mxGeometry relative="1" as="geometry" />
        </mxCell>
        <mxCell id="CGeWBXCP5YsrH_zelqQp-21" value="是" style="edgeLabel;html=1;align=center;verticalAlign=middle;resizable=0;points=[];" vertex="1" connectable="0" parent="CGeWBXCP5YsrH_zelqQp-20">
          <mxGeometry x="-0.3259" y="2" relative="1" as="geometry">
            <mxPoint as="offset" />
          </mxGeometry>
        </mxCell>
        <mxCell id="CGeWBXCP5YsrH_zelqQp-23" style="edgeStyle=orthogonalEdgeStyle;rounded=0;orthogonalLoop=1;jettySize=auto;html=1;" edge="1" parent="1" source="CGeWBXCP5YsrH_zelqQp-13" target="CGeWBXCP5YsrH_zelqQp-22">
          <mxGeometry relative="1" as="geometry" />
        </mxCell>
        <mxCell id="CGeWBXCP5YsrH_zelqQp-13" value="是否是WM02？" style="rhombus;whiteSpace=wrap;html=1;" vertex="1" parent="1">
          <mxGeometry x="450" y="520" width="80" height="80" as="geometry" />
        </mxCell>
        <mxCell id="CGeWBXCP5YsrH_zelqQp-64" style="edgeStyle=orthogonalEdgeStyle;rounded=0;orthogonalLoop=1;jettySize=auto;html=1;entryX=1;entryY=0.5;entryDx=0;entryDy=0;" edge="1" parent="1" source="CGeWBXCP5YsrH_zelqQp-14" target="CGeWBXCP5YsrH_zelqQp-55">
          <mxGeometry relative="1" as="geometry">
            <Array as="points">
              <mxPoint x="1020" y="1160" />
            </Array>
          </mxGeometry>
        </mxCell>
        <mxCell id="CGeWBXCP5YsrH_zelqQp-14" value="唤起享钱二维码并在成功后回调扣减享钱账户" style="rounded=1;whiteSpace=wrap;html=1;" vertex="1" parent="1">
          <mxGeometry x="940" y="530" width="120" height="60" as="geometry" />
        </mxCell>
        <mxCell id="CGeWBXCP5YsrH_zelqQp-25" style="edgeStyle=orthogonalEdgeStyle;rounded=0;orthogonalLoop=1;jettySize=auto;html=1;exitX=0.5;exitY=1;exitDx=0;exitDy=0;" edge="1" parent="1" source="CGeWBXCP5YsrH_zelqQp-22" target="CGeWBXCP5YsrH_zelqQp-24">
          <mxGeometry relative="1" as="geometry" />
        </mxCell>
        <mxCell id="CGeWBXCP5YsrH_zelqQp-26" value="是" style="edgeLabel;html=1;align=center;verticalAlign=middle;resizable=0;points=[];" vertex="1" connectable="0" parent="CGeWBXCP5YsrH_zelqQp-25">
          <mxGeometry x="-0.1714" y="-1" relative="1" as="geometry">
            <mxPoint as="offset" />
          </mxGeometry>
        </mxCell>
        <mxCell id="CGeWBXCP5YsrH_zelqQp-71" style="edgeStyle=orthogonalEdgeStyle;rounded=0;orthogonalLoop=1;jettySize=auto;html=1;exitX=1;exitY=0.5;exitDx=0;exitDy=0;entryX=0;entryY=0.5;entryDx=0;entryDy=0;" edge="1" parent="1" source="CGeWBXCP5YsrH_zelqQp-22" target="CGeWBXCP5YsrH_zelqQp-70">
          <mxGeometry relative="1" as="geometry" />
        </mxCell>
        <mxCell id="CGeWBXCP5YsrH_zelqQp-22" value="是否是云帆应用？" style="rhombus;whiteSpace=wrap;html=1;" vertex="1" parent="1">
          <mxGeometry x="450" y="660" width="80" height="80" as="geometry" />
        </mxCell>
        <mxCell id="CGeWBXCP5YsrH_zelqQp-28" style="edgeStyle=orthogonalEdgeStyle;rounded=0;orthogonalLoop=1;jettySize=auto;html=1;exitX=0.5;exitY=1;exitDx=0;exitDy=0;" edge="1" parent="1" source="CGeWBXCP5YsrH_zelqQp-24" target="CGeWBXCP5YsrH_zelqQp-27">
          <mxGeometry relative="1" as="geometry" />
        </mxCell>
        <mxCell id="CGeWBXCP5YsrH_zelqQp-29" value="是" style="edgeLabel;html=1;align=center;verticalAlign=middle;resizable=0;points=[];" vertex="1" connectable="0" parent="CGeWBXCP5YsrH_zelqQp-28">
          <mxGeometry x="-0.4683" y="-2" relative="1" as="geometry">
            <mxPoint as="offset" />
          </mxGeometry>
        </mxCell>
        <mxCell id="CGeWBXCP5YsrH_zelqQp-24" value="云帆的（本金+赠金足够）？" style="rhombus;whiteSpace=wrap;html=1;" vertex="1" parent="1">
          <mxGeometry x="450" y="790" width="80" height="80" as="geometry" />
        </mxCell>
        <mxCell id="CGeWBXCP5YsrH_zelqQp-58" style="edgeStyle=orthogonalEdgeStyle;rounded=0;orthogonalLoop=1;jettySize=auto;html=1;exitX=0.5;exitY=1;exitDx=0;exitDy=0;" edge="1" parent="1" source="CGeWBXCP5YsrH_zelqQp-27" target="CGeWBXCP5YsrH_zelqQp-55">
          <mxGeometry relative="1" as="geometry" />
        </mxCell>
        <mxCell id="CGeWBXCP5YsrH_zelqQp-27" value="自动确认收款，并按本赠金、分摊抵扣" style="rounded=1;whiteSpace=wrap;html=1;" vertex="1" parent="1">
          <mxGeometry x="430" y="930" width="120" height="60" as="geometry" />
        </mxCell>
        <mxCell id="CGeWBXCP5YsrH_zelqQp-33" style="edgeStyle=orthogonalEdgeStyle;rounded=0;orthogonalLoop=1;jettySize=auto;html=1;exitX=0.5;exitY=1;exitDx=0;exitDy=0;" edge="1" parent="1" source="CGeWBXCP5YsrH_zelqQp-30" target="CGeWBXCP5YsrH_zelqQp-31">
          <mxGeometry relative="1" as="geometry" />
        </mxCell>
        <mxCell id="CGeWBXCP5YsrH_zelqQp-36" style="edgeStyle=orthogonalEdgeStyle;rounded=0;orthogonalLoop=1;jettySize=auto;html=1;exitX=0;exitY=0.5;exitDx=0;exitDy=0;entryX=1;entryY=0.5;entryDx=0;entryDy=0;" edge="1" parent="1" source="CGeWBXCP5YsrH_zelqQp-30" target="CGeWBXCP5YsrH_zelqQp-35">
          <mxGeometry relative="1" as="geometry" />
        </mxCell>
        <mxCell id="CGeWBXCP5YsrH_zelqQp-66" value="是" style="edgeLabel;html=1;align=center;verticalAlign=middle;resizable=0;points=[];" vertex="1" connectable="0" parent="CGeWBXCP5YsrH_zelqQp-36">
          <mxGeometry x="-0.275" relative="1" as="geometry">
            <mxPoint as="offset" />
          </mxGeometry>
        </mxCell>
        <mxCell id="CGeWBXCP5YsrH_zelqQp-30" value="云帆支付配置开？" style="rhombus;whiteSpace=wrap;html=1;" vertex="1" parent="1">
          <mxGeometry x="260" y="790" width="80" height="80" as="geometry" />
        </mxCell>
        <mxCell id="CGeWBXCP5YsrH_zelqQp-57" style="edgeStyle=orthogonalEdgeStyle;rounded=0;orthogonalLoop=1;jettySize=auto;html=1;entryX=0;entryY=0.5;entryDx=0;entryDy=0;" edge="1" parent="1" source="CGeWBXCP5YsrH_zelqQp-31" target="CGeWBXCP5YsrH_zelqQp-55">
          <mxGeometry relative="1" as="geometry">
            <Array as="points">
              <mxPoint x="300" y="1160" />
            </Array>
          </mxGeometry>
        </mxCell>
        <mxCell id="CGeWBXCP5YsrH_zelqQp-31" value="原有逻辑" style="rounded=1;whiteSpace=wrap;html=1;" vertex="1" parent="1">
          <mxGeometry x="240" y="930" width="120" height="60" as="geometry" />
        </mxCell>
        <mxCell id="CGeWBXCP5YsrH_zelqQp-32" style="edgeStyle=orthogonalEdgeStyle;rounded=0;orthogonalLoop=1;jettySize=auto;html=1;exitX=0;exitY=0.5;exitDx=0;exitDy=0;entryX=0.951;entryY=0.509;entryDx=0;entryDy=0;entryPerimeter=0;" edge="1" parent="1" source="CGeWBXCP5YsrH_zelqQp-24" target="CGeWBXCP5YsrH_zelqQp-30">
          <mxGeometry relative="1" as="geometry" />
        </mxCell>
        <mxCell id="CGeWBXCP5YsrH_zelqQp-38" style="edgeStyle=orthogonalEdgeStyle;rounded=0;orthogonalLoop=1;jettySize=auto;html=1;entryX=0.5;entryY=0;entryDx=0;entryDy=0;" edge="1" parent="1" source="CGeWBXCP5YsrH_zelqQp-35" target="CGeWBXCP5YsrH_zelqQp-37">
          <mxGeometry relative="1" as="geometry" />
        </mxCell>
        <mxCell id="CGeWBXCP5YsrH_zelqQp-35" value="唤起云帆的收款二维码" style="rounded=1;whiteSpace=wrap;html=1;" vertex="1" parent="1">
          <mxGeometry x="60" y="800" width="120" height="60" as="geometry" />
        </mxCell>
        <mxCell id="CGeWBXCP5YsrH_zelqQp-56" style="edgeStyle=orthogonalEdgeStyle;rounded=0;orthogonalLoop=1;jettySize=auto;html=1;entryX=0;entryY=0.5;entryDx=0;entryDy=0;" edge="1" parent="1" source="CGeWBXCP5YsrH_zelqQp-37" target="CGeWBXCP5YsrH_zelqQp-55">
          <mxGeometry relative="1" as="geometry">
            <Array as="points">
              <mxPoint x="120" y="1160" />
            </Array>
          </mxGeometry>
        </mxCell>
        <mxCell id="CGeWBXCP5YsrH_zelqQp-37" value="支付（支付金额为定单金额）成功后，&lt;br&gt;完成订单后续流程&lt;div&gt;&lt;br&gt;&lt;/div&gt;" style="rounded=1;whiteSpace=wrap;html=1;" vertex="1" parent="1">
          <mxGeometry x="60" y="930" width="120" height="60" as="geometry" />
        </mxCell>
        <mxCell id="CGeWBXCP5YsrH_zelqQp-77" style="edgeStyle=orthogonalEdgeStyle;rounded=0;orthogonalLoop=1;jettySize=auto;html=1;" edge="1" parent="1" source="CGeWBXCP5YsrH_zelqQp-39" target="CGeWBXCP5YsrH_zelqQp-42">
          <mxGeometry relative="1" as="geometry">
            <mxPoint x="889.9999999999998" y="820" as="targetPoint" />
          </mxGeometry>
        </mxCell>
        <mxCell id="CGeWBXCP5YsrH_zelqQp-80" value="是" style="edgeLabel;html=1;align=center;verticalAlign=middle;resizable=0;points=[];" vertex="1" connectable="0" parent="CGeWBXCP5YsrH_zelqQp-77">
          <mxGeometry x="-0.4577" y="-1" relative="1" as="geometry">
            <mxPoint as="offset" />
          </mxGeometry>
        </mxCell>
        <mxCell id="CGeWBXCP5YsrH_zelqQp-78" style="edgeStyle=orthogonalEdgeStyle;rounded=0;orthogonalLoop=1;jettySize=auto;html=1;exitX=0;exitY=0.5;exitDx=0;exitDy=0;entryX=0.5;entryY=0;entryDx=0;entryDy=0;" edge="1" parent="1" source="CGeWBXCP5YsrH_zelqQp-39" target="CGeWBXCP5YsrH_zelqQp-49">
          <mxGeometry relative="1" as="geometry" />
        </mxCell>
        <mxCell id="CGeWBXCP5YsrH_zelqQp-39" value="erp账户的本金是否足够？" style="rhombus;whiteSpace=wrap;html=1;" vertex="1" parent="1">
          <mxGeometry x="870" y="700" width="80" height="80" as="geometry" />
        </mxCell>
        <mxCell id="CGeWBXCP5YsrH_zelqQp-81" style="edgeStyle=orthogonalEdgeStyle;rounded=0;orthogonalLoop=1;jettySize=auto;html=1;entryX=1;entryY=0.5;entryDx=0;entryDy=0;" edge="1" parent="1" source="CGeWBXCP5YsrH_zelqQp-42" target="CGeWBXCP5YsrH_zelqQp-55">
          <mxGeometry relative="1" as="geometry">
            <Array as="points">
              <mxPoint x="910" y="1160" />
            </Array>
          </mxGeometry>
        </mxCell>
        <mxCell id="CGeWBXCP5YsrH_zelqQp-42" value="自动确认收款，并按本赠金实际使用抵扣" style="rounded=1;whiteSpace=wrap;html=1;" vertex="1" parent="1">
          <mxGeometry x="850" y="930" width="120" height="60" as="geometry" />
        </mxCell>
        <mxCell id="CGeWBXCP5YsrH_zelqQp-48" style="edgeStyle=orthogonalEdgeStyle;rounded=0;orthogonalLoop=1;jettySize=auto;html=1;entryX=0.5;entryY=0;entryDx=0;entryDy=0;" edge="1" parent="1" source="CGeWBXCP5YsrH_zelqQp-49" target="CGeWBXCP5YsrH_zelqQp-50">
          <mxGeometry relative="1" as="geometry" />
        </mxCell>
        <mxCell id="CGeWBXCP5YsrH_zelqQp-49" value="唤起渠道的收款二维码" style="rounded=1;whiteSpace=wrap;html=1;" vertex="1" parent="1">
          <mxGeometry x="710" y="820" width="120" height="60" as="geometry" />
        </mxCell>
        <mxCell id="CGeWBXCP5YsrH_zelqQp-61" style="edgeStyle=orthogonalEdgeStyle;rounded=0;orthogonalLoop=1;jettySize=auto;html=1;entryX=1;entryY=0.5;entryDx=0;entryDy=0;exitX=0.5;exitY=1;exitDx=0;exitDy=0;" edge="1" parent="1" source="CGeWBXCP5YsrH_zelqQp-50" target="CGeWBXCP5YsrH_zelqQp-55">
          <mxGeometry relative="1" as="geometry">
            <Array as="points">
              <mxPoint x="770" y="1160" />
            </Array>
          </mxGeometry>
        </mxCell>
        <mxCell id="CGeWBXCP5YsrH_zelqQp-50" value="支付（支付金额为定单金额）成功后，&lt;br&gt;完成订单后续流程&lt;div&gt;&lt;br&gt;&lt;/div&gt;" style="rounded=1;whiteSpace=wrap;html=1;" vertex="1" parent="1">
          <mxGeometry x="710" y="930" width="120" height="60" as="geometry" />
        </mxCell>
        <mxCell id="CGeWBXCP5YsrH_zelqQp-62" style="edgeStyle=orthogonalEdgeStyle;rounded=0;orthogonalLoop=1;jettySize=auto;html=1;exitX=0.5;exitY=1;exitDx=0;exitDy=0;entryX=1;entryY=0.5;entryDx=0;entryDy=0;" edge="1" parent="1" source="CGeWBXCP5YsrH_zelqQp-53" target="CGeWBXCP5YsrH_zelqQp-55">
          <mxGeometry relative="1" as="geometry" />
        </mxCell>
        <mxCell id="CGeWBXCP5YsrH_zelqQp-53" value="原有逻辑" style="rounded=1;whiteSpace=wrap;html=1;" vertex="1" parent="1">
          <mxGeometry x="580" y="930" width="120" height="60" as="geometry" />
        </mxCell>
        <mxCell id="CGeWBXCP5YsrH_zelqQp-55" value="结束" style="ellipse;whiteSpace=wrap;html=1;" vertex="1" parent="1">
          <mxGeometry x="430" y="1120" width="120" height="80" as="geometry" />
        </mxCell>
        <mxCell id="CGeWBXCP5YsrH_zelqQp-72" style="edgeStyle=orthogonalEdgeStyle;rounded=0;orthogonalLoop=1;jettySize=auto;html=1;entryX=0.5;entryY=0;entryDx=0;entryDy=0;" edge="1" parent="1" source="CGeWBXCP5YsrH_zelqQp-70" target="CGeWBXCP5YsrH_zelqQp-39">
          <mxGeometry relative="1" as="geometry">
            <Array as="points">
              <mxPoint x="830" y="700" />
              <mxPoint x="830" y="700" />
            </Array>
          </mxGeometry>
        </mxCell>
        <mxCell id="CGeWBXCP5YsrH_zelqQp-70" value="erp账户是否有赠金" style="rhombus;whiteSpace=wrap;html=1;" vertex="1" parent="1">
          <mxGeometry x="600" y="660" width="80" height="80" as="geometry" />
        </mxCell>
        <mxCell id="CGeWBXCP5YsrH_zelqQp-74" style="edgeStyle=orthogonalEdgeStyle;rounded=0;orthogonalLoop=1;jettySize=auto;html=1;exitX=0.5;exitY=1;exitDx=0;exitDy=0;" edge="1" parent="1" source="CGeWBXCP5YsrH_zelqQp-70" target="CGeWBXCP5YsrH_zelqQp-53">
          <mxGeometry relative="1" as="geometry" />
        </mxCell>
        <mxCell id="CGeWBXCP5YsrH_zelqQp-75" value="有" style="edgeLabel;html=1;align=center;verticalAlign=middle;resizable=0;points=[];" vertex="1" connectable="0" parent="CGeWBXCP5YsrH_zelqQp-74">
          <mxGeometry x="-0.741" y="-1" relative="1" as="geometry">
            <mxPoint as="offset" />
          </mxGeometry>
        </mxCell>
      </root>
    </mxGraphModel>
  </diagram>
</mxfile>
